<svg width="125" height="22" viewBox="0 0 125 22" fill="none" xmlns="http://www.w3.org/2000/svg">
<path d="M10.8731 5.11758C7.7883 5.11758 5.30012 7.52227 5.30012 10.5035C5.30012 13.4848 7.7883 15.8895 10.8731 15.8895C13.9578 15.8895 16.446 13.4848 16.446 10.5035C16.446 7.52227 13.9578 5.11758 10.8731 5.11758ZM10.8731 14.0051C8.87961 14.0051 7.24993 12.4348 7.24993 10.5035C7.24993 8.57227 8.87476 7.00195 10.8731 7.00195C12.8714 7.00195 14.4962 8.57227 14.4962 10.5035C14.4962 12.4348 12.8665 14.0051 10.8731 14.0051ZM17.9739 4.89727C17.9739 5.5957 17.3918 6.15352 16.674 6.15352C15.9513 6.15352 15.3741 5.59102 15.3741 4.89727C15.3741 4.20352 15.9561 3.64102 16.674 3.64102C17.3918 3.64102 17.9739 4.20352 17.9739 4.89727ZM21.6649 6.17227C21.5824 4.48945 21.1847 2.99883 19.9091 1.7707C18.6383 0.542578 17.096 0.158203 15.3547 0.0738281C13.5601 -0.0246094 8.18118 -0.0246094 6.38658 0.0738281C4.65019 0.153516 3.1078 0.537891 1.83219 1.76602C0.556567 2.99414 0.163696 4.48477 0.0763916 6.16758C-0.0254639 7.90195 -0.0254639 13.1004 0.0763916 14.8348C0.158846 16.5176 0.556567 18.0082 1.83219 19.2363C3.1078 20.4645 4.64534 20.8488 6.38658 20.9332C8.18118 21.0316 13.5601 21.0316 15.3547 20.9332C17.096 20.8535 18.6383 20.4691 19.9091 19.2363C21.1799 18.0082 21.5776 16.5176 21.6649 14.8348C21.7668 13.1004 21.7668 7.90664 21.6649 6.17227ZM19.3465 16.6957C18.9682 17.6145 18.2358 18.3223 17.2803 18.6926C15.8494 19.241 12.4543 19.1145 10.8731 19.1145C9.29189 19.1145 5.89185 19.2363 4.46588 18.6926C3.51523 18.327 2.78284 17.6191 2.39967 16.6957C1.83219 15.3129 1.96314 12.0316 1.96314 10.5035C1.96314 8.97539 1.83704 5.68945 2.39967 4.31133C2.77799 3.39258 3.51038 2.68477 4.46588 2.31445C5.8967 1.76602 9.29189 1.89258 10.8731 1.89258C12.4543 1.89258 15.8543 1.7707 17.2803 2.31445C18.2309 2.68008 18.9633 3.38789 19.3465 4.31133C19.914 5.69414 19.783 8.97539 19.783 10.5035C19.783 12.0316 19.914 15.3176 19.3465 16.6957Z" fill="#CBCBCB"/>
<path d="M107.921 20.9995H103.417V6.97922H107.921V20.9995ZM105.667 5.06672C104.226 5.06672 103.058 3.91359 103.058 2.52141C103.058 1.85269 103.332 1.21136 103.822 0.738503C104.311 0.265647 104.975 0 105.667 0C106.359 0 107.022 0.265647 107.511 0.738503C108.001 1.21136 108.276 1.85269 108.276 2.52141C108.276 3.91359 107.107 5.06672 105.667 5.06672ZM124.782 20.9995H120.287V14.1745C120.287 12.548 120.253 10.462 117.945 10.462C115.602 10.462 115.243 12.2292 115.243 14.0573V20.9995H110.743V6.97922H115.064V8.89172H115.127C115.728 7.79016 117.198 6.62766 119.389 6.62766C123.949 6.62766 124.787 9.52922 124.787 13.298V20.9995H124.782Z" fill="#CBCBCB"/>
<path d="M86.2921 5.26266C86.3092 5.49362 86.3092 5.72462 86.3092 5.95557C86.3092 12.9999 80.7614 21.1167 70.6216 21.1167C67.4978 21.1167 64.5958 20.2423 62.1548 18.7246C62.5986 18.7741 63.0253 18.7906 63.4863 18.7906C66.0638 18.7906 68.4366 17.9492 70.3314 16.514C67.9075 16.4645 65.8761 14.9302 65.1762 12.8185C65.5176 12.868 65.859 12.901 66.2175 12.901C66.7125 12.901 67.2076 12.835 67.6685 12.7195C65.1421 12.2246 63.2472 10.0799 63.2472 7.48983V7.42386C63.9812 7.81981 64.8348 8.06726 65.7395 8.10022C64.2544 7.14335 63.2814 5.51012 63.2814 3.6624C63.2814 2.67257 63.5545 1.76521 64.0325 0.973324C66.7466 4.20682 70.8265 6.31846 75.4012 6.54946C75.3159 6.15352 75.2647 5.74113 75.2647 5.32868C75.2647 2.3921 77.7228 0 80.7784 0C82.3659 0 83.7998 0.643399 84.807 1.68274C86.0531 1.45179 87.248 1.00633 88.3064 0.395941C87.8966 1.63328 87.0261 2.67262 85.8824 3.33247C86.992 3.21704 88.0674 2.92002 89.0575 2.50763C88.3065 3.56342 87.3676 4.50374 86.2921 5.26266Z" fill="#CBCBCB"/>
<path d="M47.3414 12.375L47.9851 8.39352H43.9603V5.8098C43.9603 4.72055 44.5225 3.65879 46.3251 3.65879H48.1549V0.268984C48.1549 0.268984 46.4944 0 44.9068 0C41.5922 0 39.4257 1.90695 39.4257 5.35906V8.39352H35.7412V12.375H39.4257V22H43.9603V12.375H47.3414Z" fill="#CBCBCB"/>
</svg>
