<svg width="196" height="158" viewBox="0 0 196 158" fill="none" xmlns="http://www.w3.org/2000/svg">
<path d="M111.75 157.95V110.65C111.75 80.95 118.717 56.75 132.65 38.05C146.95 18.9833 168.033 6.51664 195.9 0.649984V36.4C183.433 39.3333 173.533 44.8333 166.2 52.9C158.867 60.6 154.1 69.95 151.9 80.95H184.9V157.95H111.75ZM0.650004 157.95V110.65C0.650004 80.95 7.61667 56.75 21.55 38.05C35.85 18.9833 56.75 6.51664 84.25 0.649984V36.4C71.7833 39.3333 61.8833 44.8333 54.55 52.9C47.2167 60.6 42.45 69.95 40.25 80.95H73.25V157.95H0.650004Z" fill="#FEBB38"/>
</svg>
